<svg width="53" height="26" viewBox="0 0 53 26" fill="none" xmlns="http://www.w3.org/2000/svg">
<rect x="0.75" y="3.75" width="46.5" height="18.5" rx="3.25" stroke="#66FE87" stroke-width="1.5"/>
<path d="M47 20H52V6H47" stroke="#66FE87" stroke-width="1.5" stroke-miterlimit="10"/>
<path d="M7.5 2.13033V4.36967C7.5 4.98815 6.96207 5.5 6.32069 5.5H5.67931C5.03793 5.5 4.5 4.98815 4.5 4.36967V2.13033C4.5 1.51185 5.03793 1 5.67931 1H6.32069C6.96207 1 7.5 1.49052 7.5 2.13033Z" fill="#272933" stroke="#66FE87" stroke-width="1.5" stroke-miterlimit="10"/>
<path d="M13.5 2.13033V4.36967C13.5 4.98815 12.9621 5.5 12.3207 5.5H11.6793C11.0379 5.5 10.5 4.98815 10.5 4.36967V2.13033C10.5 1.51185 11.0379 1 11.6793 1H12.3207C12.9621 1 13.5 1.49052 13.5 2.13033Z" fill="#272933" stroke="#66FE87" stroke-width="1.5" stroke-miterlimit="10"/>
<path d="M19.5 2.13033V4.36967C19.5 4.98815 18.9621 5.5 18.3207 5.5H17.6793C17.0379 5.5 16.5 4.98815 16.5 4.36967V2.13033C16.5 1.51185 17.0379 1 17.6793 1H18.3207C18.9621 1 19.5 1.49052 19.5 2.13033Z" fill="#272933" stroke="#66FE87" stroke-width="1.5" stroke-miterlimit="10"/>
<path d="M25.5 2.13033V4.36967C25.5 4.98815 24.9621 5.5 24.3207 5.5H23.6793C23.0379 5.5 22.5 4.98815 22.5 4.36967V2.13033C22.5 1.51185 23.0379 1 23.6793 1H24.3207C24.9621 1 25.5 1.49052 25.5 2.13033Z" fill="#272933" stroke="#66FE87" stroke-width="1.5" stroke-miterlimit="10"/>
<path d="M31.5 2.13033V4.36967C31.5 4.98815 30.9621 5.5 30.3207 5.5H29.6793C29.0379 5.5 28.5 4.98815 28.5 4.36967V2.13033C28.5 1.51185 29.0379 1 29.6793 1H30.3207C30.9621 1 31.5 1.49052 31.5 2.13033Z" fill="#272933" stroke="#66FE87" stroke-width="1.5" stroke-miterlimit="10"/>
<path d="M37.5 2.13033V4.36967C37.5 4.98815 36.9621 5.5 36.3207 5.5H35.6793C35.0379 5.5 34.5 4.98815 34.5 4.36967V2.13033C34.5 1.51185 35.0379 1 35.6793 1H36.3207C36.9621 1 37.5 1.49052 37.5 2.13033Z" fill="#272933" stroke="#66FE87" stroke-width="1.5" stroke-miterlimit="10"/>
<path d="M43.5 2.13033V4.36967C43.5 4.98815 42.9621 5.5 42.3207 5.5H41.6793C41.0379 5.5 40.5 4.98815 40.5 4.36967V2.13033C40.5 1.51185 41.0379 1 41.6793 1H42.3207C42.9621 1 43.5 1.49052 43.5 2.13033Z" fill="#272933" stroke="#66FE87" stroke-width="1.5" stroke-miterlimit="10"/>
<path d="M7.5 21.6303V23.8697C7.5 24.4882 6.96207 25 6.32069 25H5.67931C5.03793 25 4.5 24.4882 4.5 23.8697V21.6303C4.5 21.0118 5.03793 20.5 5.67931 20.5H6.32069C6.96207 20.5 7.5 20.9905 7.5 21.6303Z" fill="#272933" stroke="#66FE87" stroke-width="1.5" stroke-miterlimit="10"/>
<path d="M13.5 21.6303V23.8697C13.5 24.4882 12.9621 25 12.3207 25H11.6793C11.0379 25 10.5 24.4882 10.5 23.8697V21.6303C10.5 21.0118 11.0379 20.5 11.6793 20.5H12.3207C12.9621 20.5 13.5 20.9905 13.5 21.6303Z" fill="#272933" stroke="#66FE87" stroke-width="1.5" stroke-miterlimit="10"/>
<path d="M19.5 21.6303V23.8697C19.5 24.4882 18.9621 25 18.3207 25H17.6793C17.0379 25 16.5 24.4882 16.5 23.8697V21.6303C16.5 21.0118 17.0379 20.5 17.6793 20.5H18.3207C18.9621 20.5 19.5 20.9905 19.5 21.6303Z" fill="#272933" stroke="#66FE87" stroke-width="1.5" stroke-miterlimit="10"/>
<path d="M25.5 21.6303V23.8697C25.5 24.4882 24.9621 25 24.3207 25H23.6793C23.0379 25 22.5 24.4882 22.5 23.8697V21.6303C22.5 21.0118 23.0379 20.5 23.6793 20.5H24.3207C24.9621 20.5 25.5 20.9905 25.5 21.6303Z" fill="#272933" stroke="#66FE87" stroke-width="1.5" stroke-miterlimit="10"/>
<path d="M31.5 21.6303V23.8697C31.5 24.4882 30.9621 25 30.3207 25H29.6793C29.0379 25 28.5 24.4882 28.5 23.8697V21.6303C28.5 21.0118 29.0379 20.5 29.6793 20.5H30.3207C30.9621 20.5 31.5 20.9905 31.5 21.6303Z" fill="#272933" stroke="#66FE87" stroke-width="1.5" stroke-miterlimit="10"/>
<path d="M37.5 21.6303V23.8697C37.5 24.4882 36.9621 25 36.3207 25H35.6793C35.0379 25 34.5 24.4882 34.5 23.8697V21.6303C34.5 21.0118 35.0379 20.5 35.6793 20.5H36.3207C36.9621 20.5 37.5 20.9905 37.5 21.6303Z" fill="#272933" stroke="#66FE87" stroke-width="1.5" stroke-miterlimit="10"/>
<path d="M43.5 21.6303V23.8697C43.5 24.4882 42.9621 25 42.3207 25H41.6793C41.0379 25 40.5 24.4882 40.5 23.8697V21.6303C40.5 21.0118 41.0379 20.5 41.6793 20.5H42.3207C42.9621 20.5 43.5 20.9905 43.5 21.6303Z" fill="#272933" stroke="#66FE87" stroke-width="1.5" stroke-miterlimit="10"/>
<path d="M49.5 13.0488C49.5 14.2683 49.1485 15.3902 48.4958 16.3659C47.9937 17.1463 47.2908 17.7805 46.4874 18.2195C45.5837 18.7073 44.5795 19 43.4749 19C40.1611 19 37.5 16.3171 37.5 13C37.5 10.5122 39.0063 8.41463 41.1653 7.4878C41.8682 7.19512 42.6715 7 43.5251 7C44.3787 7 45.182 7.14634 45.8849 7.4878C46.0858 7.58537 46.3368 7.68293 46.5377 7.82927C47.341 8.26829 48.0439 8.95122 48.546 9.68293C49.1485 10.7073 49.5 11.8293 49.5 13.0488Z" fill="#272933" stroke="#66FE87" stroke-width="1.5" stroke-miterlimit="10"/>
<path d="M46.5 13.0244C46.5 13.6341 46.3243 14.1951 45.9979 14.6829C45.7469 15.0732 45.3954 15.3902 44.9937 15.6098C44.5418 15.8537 44.0398 16 43.4874 16C41.8305 16 40.5 14.6585 40.5 13C40.5 11.7561 41.2531 10.7073 42.3326 10.2439C42.6841 10.0976 43.0858 10 43.5126 10C43.9393 10 44.341 10.0732 44.6925 10.2439C44.7929 10.2927 44.9184 10.3415 45.0188 10.4146C45.4205 10.6341 45.772 10.9756 46.023 11.3415C46.3243 11.8537 46.5 12.4146 46.5 13.0244Z" stroke="#66FE87" stroke-width="1.5" stroke-miterlimit="10"/>
<path d="M6 10H38" stroke="#66FE87" stroke-width="1.5" stroke-linecap="round"/>
<path d="M6 9.25L6 16.75" stroke="#66FE87" stroke-width="1.5" stroke-linecap="round"/>
<path d="M10.5 9.25L10.5 16.75" stroke="#66FE87" stroke-width="1.5" stroke-linecap="round"/>
<path d="M15 9.25L15 16.75" stroke="#66FE87" stroke-width="1.5" stroke-linecap="round"/>
<path d="M19.5 9.25L19.5 16.75" stroke="#66FE87" stroke-width="1.5" stroke-linecap="round"/>
<path d="M24 9.25L24 16.75" stroke="#66FE87" stroke-width="1.5" stroke-linecap="round"/>
<path d="M28.5 9.25L28.5 16.75" stroke="#66FE87" stroke-width="1.5" stroke-linecap="round"/>
<path d="M33 9.25L33 16.75" stroke="#66FE87" stroke-width="1.5" stroke-linecap="round"/>
<path d="M6 16H38" stroke="#66FE87" stroke-width="1.5" stroke-linecap="round"/>
</svg>
