<svg width="24" height="24" viewBox="0 0 24 24" fill="none" xmlns="http://www.w3.org/2000/svg">
<circle cx="12" cy="12" r="11.5" fill="#393C4D" stroke="#DB8181"/>
<path d="M12.006 9.33846V12.1141M12.006 13.7795H12.012M17.8394 14.3346L13.0432 6.56284C12.9386 6.39197 12.7869 6.24985 12.6037 6.15097C12.4204 6.0521 12.2121 6 12 6C11.7879 6 11.5796 6.0521 11.3963 6.15097C11.2131 6.24985 11.0614 6.39197 10.9568 6.56284L6.16067 14.3346C6.05496 14.5041 5.99953 14.6965 6 14.8922C6.00047 15.088 6.05682 15.2801 6.16334 15.4492C6.26985 15.6183 6.42275 15.7582 6.60653 15.855C6.79031 15.9517 6.99845 16.0017 7.20983 16H16.8022C17.0126 15.9998 17.2192 15.9483 17.4013 15.8508C17.5834 15.7533 17.7346 15.6131 17.8397 15.4443C17.9448 15.2756 18.0001 15.0842 18 14.8894C17.9999 14.6946 17.9445 14.5033 17.8394 14.3346Z" stroke="#DB8181" stroke-linecap="round" stroke-linejoin="round"/>
</svg>
