<svg width="52" height="20" viewBox="0 0 52 20" fill="none" xmlns="http://www.w3.org/2000/svg">
<path d="M47.5405 19H25.1275C24.6886 19 24.334 18.5878 24.334 18.0774V1.92257C24.334 1.41221 24.6886 1 25.1275 1H47.5405C47.9794 1 48.334 1.41221 48.334 1.92257V18.0774C48.334 18.5878 47.9794 19 47.5405 19Z" stroke="#66FE87" stroke-width="1.5" stroke-miterlimit="10"/>
<path d="M22 6.88998V13.1198C22 13.929 22.1938 14.6699 22.511 15.0794L24 17V10V3L22.511 4.92061C22.1938 5.33009 22 6.08078 22 6.88998Z" stroke="#66FE87" stroke-width="1.5" stroke-miterlimit="10"/>
<path d="M22 8H21V12H22V8Z" stroke="#66FE87" stroke-width="1.5" stroke-miterlimit="10"/>
<path d="M3 7H2.17244C1.51726 7 1 7.62839 1 8.37839V11.6216C1 12.3919 1.5345 13 2.17244 13H3V7Z" stroke="#66FE87" stroke-width="1.5" stroke-miterlimit="10"/>
<path d="M3 8H6" stroke="#66FE87" stroke-width="1.5" stroke-miterlimit="10"/>
<path d="M3 10H6" stroke="#66FE87" stroke-width="1.5" stroke-miterlimit="10"/>
<path d="M3 12H6" stroke="#66FE87" stroke-width="1.5" stroke-miterlimit="10"/>
<path d="M24.334 3H48.334" stroke="#66FE87" stroke-width="1.5" stroke-miterlimit="10"/>
<path d="M24.334 17H48.334" stroke="#66FE87" stroke-width="1.5" stroke-miterlimit="10"/>
<path d="M8 6H16" stroke="#66FE87" stroke-width="1.5" stroke-miterlimit="10"/>
<path d="M8 10H16" stroke="#66FE87" stroke-width="1.5" stroke-miterlimit="10"/>
<path d="M8 14H16" stroke="#66FE87" stroke-width="1.5" stroke-miterlimit="10"/>
<path d="M29.4262 13H28.5738C27.7082 13 27 12.3193 27 11.4874V8.51261C27 7.68067 27.7082 7 28.5738 7H29.4262C30.2918 7 31 7.68067 31 8.51261V11.4874C31 12.3193 30.2918 13 29.4262 13Z" stroke="#66FE87" stroke-width="1.5" stroke-miterlimit="10"/>
<path d="M29 3L29.0012 7.2" stroke="#66FE87" stroke-width="1.5" stroke-miterlimit="10"/>
<path d="M29.002 12.8L29.0031 17" stroke="#66FE87" stroke-width="1.5" stroke-miterlimit="10"/>
<path d="M36.4262 13H35.5738C34.7082 13 34 12.3193 34 11.4874V8.51261C34 7.68067 34.7082 7 35.5738 7H36.4262C37.2918 7 38 7.68067 38 8.51261V11.4874C38 12.3193 37.2918 13 36.4262 13Z" stroke="#66FE87" stroke-width="1.5" stroke-miterlimit="10"/>
<path d="M36 3L36.0012 7.2" stroke="#66FE87" stroke-width="1.5" stroke-miterlimit="10"/>
<path d="M36.002 12.8L36.0031 17" stroke="#66FE87" stroke-width="1.5" stroke-miterlimit="10"/>
<path d="M43.4262 13H42.5738C41.7082 13 41 12.3193 41 11.4874V8.51261C41 7.68067 41.7082 7 42.5738 7H43.4262C44.2918 7 45 7.68067 45 8.51261V11.4874C45 12.3193 44.2918 13 43.4262 13Z" stroke="#66FE87" stroke-width="1.5" stroke-miterlimit="10"/>
<path d="M43 3L43.0012 7.2" stroke="#66FE87" stroke-width="1.5" stroke-miterlimit="10"/>
<path d="M43.002 12.8L43.0031 17" stroke="#66FE87" stroke-width="1.5" stroke-miterlimit="10"/>
<path d="M18.75 5.75H19C19.6904 5.75 20.25 6.30964 20.25 7V13C20.25 13.6904 19.6904 14.25 19 14.25H18.75V5.75Z" stroke="#66FE87" stroke-width="1.5"/>
<path d="M48 3H49C50.1046 3 51 3.89543 51 5V15C51 16.1046 50.1046 17 49 17H48V3Z" stroke="#66FE87" stroke-width="1.5"/>
<path d="M5.25 14.25L5 14.25C4.30964 14.25 3.75 13.6904 3.75 13L3.75 7C3.75 6.30964 4.30964 5.75 5 5.75L5.25 5.75L5.25 14.25Z" stroke="#66FE87" stroke-width="1.5"/>
<path d="M18.25 16C18.25 16.6904 17.6904 17.25 17 17.25L7 17.25C6.30964 17.25 5.75 16.6904 5.75 16L5.75 4C5.75 3.30964 6.30964 2.75 7 2.75L17 2.75C17.6904 2.75 18.25 3.30964 18.25 4L18.25 16Z" stroke="#66FE87" stroke-width="1.5"/>
</svg>
